# xmcd
#
# Track frame offsets:
#	150
#	20842
#	39147
#	62847
#	78494
#	95557
#	116806
#	134196
#	147944
#	167710
#	185642
#	205411
#	222334
#
# Disc length: 3214 seconds
#
# Revision: 121448656
# Processed by: cddbd v1.5.2PL0 Copyright (c) Steve Scherf et al.
# Submitted via: EZCDAudioConverter 8.0.2.1
#
DISCID=cb0c8c0d
DTITLE=Various Artist - st. Yên Lam, Nguyễn Ngọc Tài
DYEAR=2006
DGENRE=Blues
TTITLE0=Tóc Tiên - Nước mắt của đêm
TTITLE1=Hồng Mơ - Viết cho người ở xa
TTITLE2=Trần Vũ Hà My - Yêu anh dại khờ
TTITLE3=Tuấn Kiệt - Tìm nhau
TTITLE4=Hà My - Đừng làm nát tim tôi
TTITLE5=Tuấn Kiệt - Đừng là giấc mơ
TTITLE6=Phương Trinh - Sóng ru
TTITLE7=Hồng Mơ - Cô đơn
TTITLE8=Thanh Lam and Duy Linh - Chỉ là thoáng mây bay
TTITLE9=Hồng Mơ - Phút giây
TTITLE10=Quách Thành Danh - Bờ bến tình yêu
TTITLE11=Trần Hồng Kiệt - Gọi bình yên quay về
TTITLE12=Trần Hồng Kiệt - Tình phai
EXTD=
EXTT0=
EXTT1=
EXTT2=
EXTT3=
EXTT4=
EXTT5=
EXTT6=
EXTT7=
EXTT8=
EXTT9=
EXTT10=
EXTT11=
EXTT12=
PLAYORDER=
